<mxfile host="app.diagrams.net" modified="2024-03-30T05:38:46.661Z" agent="Mozilla/5.0 (X11; Linux x86_64; rv:124.0) Gecko/20100101 Firefox/124.0" etag="llAly7Jj4XF_N-ZJldAq" version="24.0.4" type="github">
  <diagram name="Page-1" id="3_EQi7NGd7EGKFFnlD0m">
    <mxGraphModel dx="2276" dy="730" grid="1" gridSize="10" guides="1" tooltips="1" connect="1" arrows="1" fold="1" page="1" pageScale="1" pageWidth="850" pageHeight="1100" math="0" shadow="0">
      <root>
        <mxCell id="0" />
        <mxCell id="1" parent="0" />
        <mxCell id="hf7dS8s47CBtXchhYv7F-2" value="" style="rounded=0;whiteSpace=wrap;html=1;" parent="1" vertex="1">
          <mxGeometry x="-220" y="170" width="1110" height="50" as="geometry" />
        </mxCell>
        <mxCell id="hf7dS8s47CBtXchhYv7F-10" value="" style="group" parent="1" vertex="1" connectable="0">
          <mxGeometry x="-170" y="180" width="120" height="30" as="geometry" />
        </mxCell>
        <mxCell id="hf7dS8s47CBtXchhYv7F-6" value="" style="rounded=0;whiteSpace=wrap;html=1;" parent="hf7dS8s47CBtXchhYv7F-10" vertex="1">
          <mxGeometry width="120" height="30" as="geometry" />
        </mxCell>
        <mxCell id="hf7dS8s47CBtXchhYv7F-7" value="" style="endArrow=none;html=1;rounded=0;exitX=1;exitY=0;exitDx=0;exitDy=0;entryX=0;entryY=1;entryDx=0;entryDy=0;" parent="hf7dS8s47CBtXchhYv7F-10" source="hf7dS8s47CBtXchhYv7F-6" target="hf7dS8s47CBtXchhYv7F-6" edge="1">
          <mxGeometry width="50" height="50" relative="1" as="geometry">
            <mxPoint x="120" y="370" as="sourcePoint" />
            <mxPoint x="320" y="320" as="targetPoint" />
          </mxGeometry>
        </mxCell>
        <mxCell id="hf7dS8s47CBtXchhYv7F-8" value="" style="endArrow=none;html=1;rounded=0;exitX=0;exitY=0;exitDx=0;exitDy=0;entryX=1;entryY=1;entryDx=0;entryDy=0;" parent="hf7dS8s47CBtXchhYv7F-10" source="hf7dS8s47CBtXchhYv7F-6" target="hf7dS8s47CBtXchhYv7F-6" edge="1">
          <mxGeometry width="50" height="50" relative="1" as="geometry">
            <mxPoint y="380" as="sourcePoint" />
            <mxPoint x="480" y="320" as="targetPoint" />
          </mxGeometry>
        </mxCell>
        <mxCell id="hf7dS8s47CBtXchhYv7F-12" value="&lt;div align=&quot;left&quot;&gt;Search&lt;br&gt;&lt;/div&gt;" style="rounded=1;whiteSpace=wrap;html=1;" parent="1" vertex="1">
          <mxGeometry x="-10" y="180" width="310" height="30" as="geometry" />
        </mxCell>
        <mxCell id="hf7dS8s47CBtXchhYv7F-13" value="Sign Up" style="rounded=1;whiteSpace=wrap;html=1;" parent="1" vertex="1">
          <mxGeometry x="820" y="180" width="60" height="30" as="geometry" />
        </mxCell>
        <mxCell id="hf7dS8s47CBtXchhYv7F-14" value="Log In" style="rounded=1;whiteSpace=wrap;html=1;" parent="1" vertex="1">
          <mxGeometry x="750" y="180" width="60" height="30" as="geometry" />
        </mxCell>
        <mxCell id="DSk2bYXudg5I39hUb7sB-1" value="" style="rounded=0;whiteSpace=wrap;html=1;" vertex="1" parent="1">
          <mxGeometry x="-220" y="260" width="1110" height="50" as="geometry" />
        </mxCell>
        <mxCell id="DSk2bYXudg5I39hUb7sB-2" value="" style="group" vertex="1" connectable="0" parent="1">
          <mxGeometry x="-170" y="270" width="120" height="30" as="geometry" />
        </mxCell>
        <mxCell id="DSk2bYXudg5I39hUb7sB-3" value="" style="rounded=0;whiteSpace=wrap;html=1;" vertex="1" parent="DSk2bYXudg5I39hUb7sB-2">
          <mxGeometry width="120" height="30" as="geometry" />
        </mxCell>
        <mxCell id="DSk2bYXudg5I39hUb7sB-4" value="" style="endArrow=none;html=1;rounded=0;exitX=1;exitY=0;exitDx=0;exitDy=0;entryX=0;entryY=1;entryDx=0;entryDy=0;" edge="1" parent="DSk2bYXudg5I39hUb7sB-2" source="DSk2bYXudg5I39hUb7sB-3" target="DSk2bYXudg5I39hUb7sB-3">
          <mxGeometry width="50" height="50" relative="1" as="geometry">
            <mxPoint x="120" y="370" as="sourcePoint" />
            <mxPoint x="320" y="320" as="targetPoint" />
          </mxGeometry>
        </mxCell>
        <mxCell id="DSk2bYXudg5I39hUb7sB-5" value="" style="endArrow=none;html=1;rounded=0;exitX=0;exitY=0;exitDx=0;exitDy=0;entryX=1;entryY=1;entryDx=0;entryDy=0;" edge="1" parent="DSk2bYXudg5I39hUb7sB-2" source="DSk2bYXudg5I39hUb7sB-3" target="DSk2bYXudg5I39hUb7sB-3">
          <mxGeometry width="50" height="50" relative="1" as="geometry">
            <mxPoint y="380" as="sourcePoint" />
            <mxPoint x="480" y="320" as="targetPoint" />
          </mxGeometry>
        </mxCell>
        <mxCell id="DSk2bYXudg5I39hUb7sB-6" value="&lt;div align=&quot;left&quot;&gt;Search&lt;br&gt;&lt;/div&gt;" style="rounded=1;whiteSpace=wrap;html=1;" vertex="1" parent="1">
          <mxGeometry x="-10" y="270" width="310" height="30" as="geometry" />
        </mxCell>
        <mxCell id="DSk2bYXudg5I39hUb7sB-10" value="" style="group" vertex="1" connectable="0" parent="1">
          <mxGeometry x="850" y="270" width="30" height="30" as="geometry" />
        </mxCell>
        <mxCell id="DSk2bYXudg5I39hUb7sB-17" style="edgeStyle=orthogonalEdgeStyle;rounded=0;orthogonalLoop=1;jettySize=auto;html=1;exitX=1;exitY=0;exitDx=0;exitDy=0;" edge="1" parent="DSk2bYXudg5I39hUb7sB-10" source="DSk2bYXudg5I39hUb7sB-11">
          <mxGeometry relative="1" as="geometry">
            <mxPoint x="50" y="-20" as="targetPoint" />
          </mxGeometry>
        </mxCell>
        <mxCell id="DSk2bYXudg5I39hUb7sB-11" value="" style="rounded=0;whiteSpace=wrap;html=1;" vertex="1" parent="DSk2bYXudg5I39hUb7sB-10">
          <mxGeometry width="30" height="30" as="geometry" />
        </mxCell>
        <mxCell id="DSk2bYXudg5I39hUb7sB-12" value="" style="endArrow=none;html=1;rounded=0;exitX=1;exitY=0;exitDx=0;exitDy=0;entryX=0;entryY=1;entryDx=0;entryDy=0;" edge="1" parent="DSk2bYXudg5I39hUb7sB-10" source="DSk2bYXudg5I39hUb7sB-11" target="DSk2bYXudg5I39hUb7sB-11">
          <mxGeometry width="50" height="50" relative="1" as="geometry">
            <mxPoint x="30" y="370" as="sourcePoint" />
            <mxPoint x="80" y="320" as="targetPoint" />
          </mxGeometry>
        </mxCell>
        <mxCell id="DSk2bYXudg5I39hUb7sB-13" value="" style="endArrow=none;html=1;rounded=0;exitX=0;exitY=0;exitDx=0;exitDy=0;entryX=1;entryY=1;entryDx=0;entryDy=0;" edge="1" parent="DSk2bYXudg5I39hUb7sB-10" source="DSk2bYXudg5I39hUb7sB-11" target="DSk2bYXudg5I39hUb7sB-11">
          <mxGeometry width="50" height="50" relative="1" as="geometry">
            <mxPoint y="380" as="sourcePoint" />
            <mxPoint x="120" y="320" as="targetPoint" />
          </mxGeometry>
        </mxCell>
        <mxCell id="DSk2bYXudg5I39hUb7sB-18" value="&lt;div&gt;account info btn&lt;/div&gt;" style="text;strokeColor=none;align=center;fillColor=none;html=1;verticalAlign=middle;whiteSpace=wrap;rounded=0;" vertex="1" parent="1">
          <mxGeometry x="850" y="220" width="110" height="30" as="geometry" />
        </mxCell>
        <mxCell id="DSk2bYXudg5I39hUb7sB-25" value="" style="group" vertex="1" connectable="0" parent="1">
          <mxGeometry x="-210" y="185" width="30" height="20" as="geometry" />
        </mxCell>
        <mxCell id="DSk2bYXudg5I39hUb7sB-21" value="" style="endArrow=none;html=1;rounded=0;" edge="1" parent="DSk2bYXudg5I39hUb7sB-25">
          <mxGeometry width="50" height="50" relative="1" as="geometry">
            <mxPoint as="sourcePoint" />
            <mxPoint x="30" as="targetPoint" />
          </mxGeometry>
        </mxCell>
        <mxCell id="DSk2bYXudg5I39hUb7sB-23" value="" style="endArrow=none;html=1;rounded=0;" edge="1" parent="DSk2bYXudg5I39hUb7sB-25">
          <mxGeometry width="50" height="50" relative="1" as="geometry">
            <mxPoint y="10" as="sourcePoint" />
            <mxPoint x="30" y="10" as="targetPoint" />
          </mxGeometry>
        </mxCell>
        <mxCell id="DSk2bYXudg5I39hUb7sB-24" value="" style="endArrow=none;html=1;rounded=0;" edge="1" parent="DSk2bYXudg5I39hUb7sB-25">
          <mxGeometry width="50" height="50" relative="1" as="geometry">
            <mxPoint y="20" as="sourcePoint" />
            <mxPoint x="30" y="20" as="targetPoint" />
          </mxGeometry>
        </mxCell>
        <mxCell id="DSk2bYXudg5I39hUb7sB-26" value="" style="group" vertex="1" connectable="0" parent="1">
          <mxGeometry x="-210" y="275" width="30" height="20" as="geometry" />
        </mxCell>
        <mxCell id="DSk2bYXudg5I39hUb7sB-27" value="" style="endArrow=none;html=1;rounded=0;" edge="1" parent="DSk2bYXudg5I39hUb7sB-26">
          <mxGeometry width="50" height="50" relative="1" as="geometry">
            <mxPoint as="sourcePoint" />
            <mxPoint x="30" as="targetPoint" />
          </mxGeometry>
        </mxCell>
        <mxCell id="DSk2bYXudg5I39hUb7sB-28" value="" style="endArrow=none;html=1;rounded=0;" edge="1" parent="DSk2bYXudg5I39hUb7sB-26">
          <mxGeometry width="50" height="50" relative="1" as="geometry">
            <mxPoint y="10" as="sourcePoint" />
            <mxPoint x="30" y="10" as="targetPoint" />
          </mxGeometry>
        </mxCell>
        <mxCell id="DSk2bYXudg5I39hUb7sB-29" value="" style="endArrow=none;html=1;rounded=0;" edge="1" parent="DSk2bYXudg5I39hUb7sB-26">
          <mxGeometry width="50" height="50" relative="1" as="geometry">
            <mxPoint y="20" as="sourcePoint" />
            <mxPoint x="30" y="20" as="targetPoint" />
          </mxGeometry>
        </mxCell>
        <mxCell id="DSk2bYXudg5I39hUb7sB-30" value="" style="endArrow=none;html=1;rounded=0;" edge="1" parent="1">
          <mxGeometry width="50" height="50" relative="1" as="geometry">
            <mxPoint x="20" y="210" as="sourcePoint" />
            <mxPoint x="20" y="180" as="targetPoint" />
          </mxGeometry>
        </mxCell>
        <mxCell id="DSk2bYXudg5I39hUb7sB-31" value="" style="endArrow=none;html=1;rounded=0;" edge="1" parent="1">
          <mxGeometry width="50" height="50" relative="1" as="geometry">
            <mxPoint x="20" y="300" as="sourcePoint" />
            <mxPoint x="20" y="270" as="targetPoint" />
          </mxGeometry>
        </mxCell>
        <mxCell id="DSk2bYXudg5I39hUb7sB-32" value="" style="verticalLabelPosition=bottom;verticalAlign=top;html=1;shape=mxgraph.basic.acute_triangle;dx=0.5;direction=west;" vertex="1" parent="1">
          <mxGeometry x="-2" y="278" width="15" height="14" as="geometry" />
        </mxCell>
        <mxCell id="DSk2bYXudg5I39hUb7sB-35" value="" style="verticalLabelPosition=bottom;verticalAlign=top;html=1;shape=mxgraph.basic.acute_triangle;dx=0.5;direction=west;" vertex="1" parent="1">
          <mxGeometry x="-2" y="188" width="15" height="14" as="geometry" />
        </mxCell>
        <mxCell id="DSk2bYXudg5I39hUb7sB-36" value="&lt;u&gt;Link&lt;/u&gt;" style="text;strokeColor=none;align=center;fillColor=none;html=1;verticalAlign=middle;whiteSpace=wrap;rounded=0;" vertex="1" parent="1">
          <mxGeometry x="310" y="180" width="60" height="30" as="geometry" />
        </mxCell>
        <mxCell id="DSk2bYXudg5I39hUb7sB-37" value="&lt;u&gt;Link&lt;/u&gt;" style="text;strokeColor=none;align=center;fillColor=none;html=1;verticalAlign=middle;whiteSpace=wrap;rounded=0;" vertex="1" parent="1">
          <mxGeometry x="360" y="180" width="60" height="30" as="geometry" />
        </mxCell>
        <mxCell id="DSk2bYXudg5I39hUb7sB-38" value="&lt;u&gt;Link&lt;/u&gt;" style="text;strokeColor=none;align=center;fillColor=none;html=1;verticalAlign=middle;whiteSpace=wrap;rounded=0;" vertex="1" parent="1">
          <mxGeometry x="410" y="180" width="60" height="30" as="geometry" />
        </mxCell>
        <mxCell id="DSk2bYXudg5I39hUb7sB-39" value="&lt;u&gt;Link&lt;/u&gt;" style="text;strokeColor=none;align=center;fillColor=none;html=1;verticalAlign=middle;whiteSpace=wrap;rounded=0;" vertex="1" parent="1">
          <mxGeometry x="460" y="180" width="60" height="30" as="geometry" />
        </mxCell>
        <mxCell id="DSk2bYXudg5I39hUb7sB-40" value="&lt;u&gt;Link&lt;/u&gt;" style="text;strokeColor=none;align=center;fillColor=none;html=1;verticalAlign=middle;whiteSpace=wrap;rounded=0;" vertex="1" parent="1">
          <mxGeometry x="305" y="270" width="60" height="30" as="geometry" />
        </mxCell>
        <mxCell id="DSk2bYXudg5I39hUb7sB-41" value="&lt;u&gt;Link&lt;/u&gt;" style="text;strokeColor=none;align=center;fillColor=none;html=1;verticalAlign=middle;whiteSpace=wrap;rounded=0;" vertex="1" parent="1">
          <mxGeometry x="360" y="270" width="60" height="30" as="geometry" />
        </mxCell>
        <mxCell id="DSk2bYXudg5I39hUb7sB-42" value="&lt;u&gt;Link&lt;/u&gt;" style="text;strokeColor=none;align=center;fillColor=none;html=1;verticalAlign=middle;whiteSpace=wrap;rounded=0;" vertex="1" parent="1">
          <mxGeometry x="410" y="270" width="60" height="30" as="geometry" />
        </mxCell>
        <mxCell id="DSk2bYXudg5I39hUb7sB-43" value="&lt;u&gt;Link&lt;/u&gt;" style="text;strokeColor=none;align=center;fillColor=none;html=1;verticalAlign=middle;whiteSpace=wrap;rounded=0;" vertex="1" parent="1">
          <mxGeometry x="460" y="270" width="60" height="30" as="geometry" />
        </mxCell>
      </root>
    </mxGraphModel>
  </diagram>
</mxfile>
